<svg width="308" height="307" viewBox="0 0 308 307" fill="none" xmlns="http://www.w3.org/2000/svg">
<path d="M154 0L171.371 16.4929L192.298 4.8382L205.022 25.133L228.19 19.0488L235.467 41.8702L259.42 41.7388L260.793 65.653L284.026 71.4827L279.409 94.987L300.463 106.411L290.145 128.029L307.696 144.33L292.327 162.703L305.272 182.857L285.816 196.83L293.343 219.57L271.024 228.266L272.659 252.163L248.878 255.035L244.519 278.589L220.771 275.456L210.691 297.186L188.468 288.246L173.301 306.786L154 292.6L134.699 306.786L119.532 288.246L97.3088 297.186L87.2289 275.456L63.4811 278.589L59.1218 255.035L35.341 252.163L36.9762 228.266L14.6566 219.57L22.1836 196.83L2.72777 182.857L15.6735 162.703L0.303879 144.33L17.855 128.029L7.53729 106.411L28.591 94.987L23.9735 71.4827L47.2069 65.653L48.5797 41.7388L72.533 41.8702L79.8099 19.0488L102.978 25.133L115.702 4.8382L136.629 16.4929L154 0Z" fill="#48CAE4"/>
</svg>
